<mxfile host="app.diagrams.net" agent="Mozilla/5.0 (Windows NT 10.0; Win64; x64) AppleWebKit/537.36 (KHTML, like Gecko) Chrome/129.0.0.0 Safari/537.36" version="24.7.17">
  <diagram name="Page-1" id="onyiJ8mkwcIT5IUi_AFx">
    <mxGraphModel dx="3217" dy="2601" grid="1" gridSize="10" guides="1" tooltips="1" connect="1" arrows="1" fold="1" page="1" pageScale="1" pageWidth="827" pageHeight="1169" math="0" shadow="0">
      <root>
        <mxCell id="0" />
        <mxCell id="1" parent="0" />
        <mxCell id="f96BkYOf5rvZ-Ez8Ll_H-1" value="&lt;font style=&quot;font-size: 18px;&quot;&gt;Athlete&lt;/font&gt;" style="rounded=0;whiteSpace=wrap;html=1;" parent="1" vertex="1">
          <mxGeometry x="-170" y="90" width="150" height="110" as="geometry" />
        </mxCell>
        <mxCell id="_N7iAMZZw34mjAhH9r4t-4" value="" style="edgeStyle=orthogonalEdgeStyle;rounded=0;orthogonalLoop=1;jettySize=auto;html=1;" parent="1" source="f96BkYOf5rvZ-Ez8Ll_H-4" target="_N7iAMZZw34mjAhH9r4t-3" edge="1">
          <mxGeometry relative="1" as="geometry" />
        </mxCell>
        <mxCell id="_N7iAMZZw34mjAhH9r4t-7" style="edgeStyle=orthogonalEdgeStyle;rounded=0;orthogonalLoop=1;jettySize=auto;html=1;" parent="1" source="f96BkYOf5rvZ-Ez8Ll_H-4" target="_N7iAMZZw34mjAhH9r4t-2" edge="1">
          <mxGeometry relative="1" as="geometry" />
        </mxCell>
        <mxCell id="f96BkYOf5rvZ-Ez8Ll_H-4" value="Event" style="rounded=0;whiteSpace=wrap;html=1;" parent="1" vertex="1">
          <mxGeometry x="1340" y="110" width="120" height="60" as="geometry" />
        </mxCell>
        <mxCell id="f96BkYOf5rvZ-Ez8Ll_H-2" value="" style="rhombus;whiteSpace=wrap;html=1;" parent="1" vertex="1">
          <mxGeometry x="740" y="70" width="90" height="115" as="geometry" />
        </mxCell>
        <mxCell id="f96BkYOf5rvZ-Ez8Ll_H-17" value="Coached" style="rhombus;whiteSpace=wrap;html=1;" parent="1" vertex="1">
          <mxGeometry x="-135" y="400" width="80" height="80" as="geometry" />
        </mxCell>
        <mxCell id="f96BkYOf5rvZ-Ez8Ll_H-19" value="Coach" style="rounded=0;whiteSpace=wrap;html=1;" parent="1" vertex="1">
          <mxGeometry x="-150" y="650" width="120" height="60" as="geometry" />
        </mxCell>
        <mxCell id="f96BkYOf5rvZ-Ez8Ll_H-52" value="" style="edgeStyle=orthogonalEdgeStyle;rounded=0;orthogonalLoop=1;jettySize=auto;html=1;" parent="1" source="f96BkYOf5rvZ-Ez8Ll_H-23" target="f96BkYOf5rvZ-Ez8Ll_H-51" edge="1">
          <mxGeometry relative="1" as="geometry" />
        </mxCell>
        <mxCell id="_N7iAMZZw34mjAhH9r4t-95" value="&lt;font style=&quot;font-size: 18px;&quot;&gt;1&lt;/font&gt;" style="edgeLabel;html=1;align=center;verticalAlign=middle;resizable=0;points=[];" parent="f96BkYOf5rvZ-Ez8Ll_H-52" vertex="1" connectable="0">
          <mxGeometry x="-0.4402" y="2" relative="1" as="geometry">
            <mxPoint as="offset" />
          </mxGeometry>
        </mxCell>
        <mxCell id="f96BkYOf5rvZ-Ez8Ll_H-23" value="Joins" style="rhombus;whiteSpace=wrap;html=1;" parent="1" vertex="1">
          <mxGeometry x="200" y="570" width="80" height="80" as="geometry" />
        </mxCell>
        <mxCell id="f96BkYOf5rvZ-Ez8Ll_H-87" value="" style="edgeStyle=orthogonalEdgeStyle;rounded=0;orthogonalLoop=1;jettySize=auto;html=1;" parent="1" source="f96BkYOf5rvZ-Ez8Ll_H-31" target="f96BkYOf5rvZ-Ez8Ll_H-86" edge="1">
          <mxGeometry relative="1" as="geometry" />
        </mxCell>
        <mxCell id="f96BkYOf5rvZ-Ez8Ll_H-89" value="" style="edgeStyle=orthogonalEdgeStyle;rounded=0;orthogonalLoop=1;jettySize=auto;html=1;" parent="1" source="f96BkYOf5rvZ-Ez8Ll_H-31" target="f96BkYOf5rvZ-Ez8Ll_H-88" edge="1">
          <mxGeometry relative="1" as="geometry" />
        </mxCell>
        <mxCell id="f96BkYOf5rvZ-Ez8Ll_H-31" value="" style="rounded=0;whiteSpace=wrap;html=1;" parent="1" vertex="1">
          <mxGeometry x="790" y="380" width="120" height="60" as="geometry" />
        </mxCell>
        <mxCell id="f96BkYOf5rvZ-Ez8Ll_H-33" value="takes&lt;div&gt;place&lt;/div&gt;" style="rhombus;whiteSpace=wrap;html=1;rounded=0;" parent="1" vertex="1">
          <mxGeometry x="1360" y="270" width="80" height="80" as="geometry" />
        </mxCell>
        <mxCell id="_N7iAMZZw34mjAhH9r4t-13" value="" style="edgeStyle=orthogonalEdgeStyle;rounded=0;orthogonalLoop=1;jettySize=auto;html=1;" parent="1" source="f96BkYOf5rvZ-Ez8Ll_H-35" target="_N7iAMZZw34mjAhH9r4t-8" edge="1">
          <mxGeometry relative="1" as="geometry" />
        </mxCell>
        <mxCell id="f96BkYOf5rvZ-Ez8Ll_H-35" value="Venue" style="rounded=0;whiteSpace=wrap;html=1;" parent="1" vertex="1">
          <mxGeometry x="1340" y="460" width="120" height="60" as="geometry" />
        </mxCell>
        <mxCell id="f96BkYOf5rvZ-Ez8Ll_H-38" value="&lt;u&gt;Athelete_ID&lt;/u&gt;" style="ellipse;whiteSpace=wrap;html=1;rounded=0;" parent="1" vertex="1">
          <mxGeometry x="-390" y="-35" width="120" height="50" as="geometry" />
        </mxCell>
        <mxCell id="f96BkYOf5rvZ-Ez8Ll_H-41" value="Name" style="ellipse;whiteSpace=wrap;html=1;" parent="1" vertex="1">
          <mxGeometry x="-35" y="-75" width="110" height="40" as="geometry" />
        </mxCell>
        <mxCell id="f96BkYOf5rvZ-Ez8Ll_H-42" value="" style="endArrow=none;html=1;rounded=0;exitX=0.592;exitY=0.027;exitDx=0;exitDy=0;exitPerimeter=0;entryX=0.317;entryY=0.939;entryDx=0;entryDy=0;entryPerimeter=0;" parent="1" source="f96BkYOf5rvZ-Ez8Ll_H-1" target="f96BkYOf5rvZ-Ez8Ll_H-41" edge="1">
          <mxGeometry width="50" height="50" relative="1" as="geometry">
            <mxPoint x="220" y="110" as="sourcePoint" />
            <mxPoint x="290" y="30" as="targetPoint" />
          </mxGeometry>
        </mxCell>
        <mxCell id="f96BkYOf5rvZ-Ez8Ll_H-43" value="" style="endArrow=none;html=1;rounded=0;exitX=0.41;exitY=0.076;exitDx=0;exitDy=0;exitPerimeter=0;entryX=0.5;entryY=1;entryDx=0;entryDy=0;" parent="1" source="f96BkYOf5rvZ-Ez8Ll_H-1" target="f96BkYOf5rvZ-Ez8Ll_H-44" edge="1">
          <mxGeometry width="50" height="50" relative="1" as="geometry">
            <mxPoint x="210" y="110" as="sourcePoint" />
            <mxPoint x="210" y="-70" as="targetPoint" />
          </mxGeometry>
        </mxCell>
        <mxCell id="f96BkYOf5rvZ-Ez8Ll_H-44" value="Sport" style="ellipse;whiteSpace=wrap;html=1;" parent="1" vertex="1">
          <mxGeometry x="-220" y="-110" width="120" height="60" as="geometry" />
        </mxCell>
        <mxCell id="f96BkYOf5rvZ-Ez8Ll_H-47" value="TeamName" style="ellipse;whiteSpace=wrap;html=1;" parent="1" vertex="1">
          <mxGeometry x="-430" y="80" width="130" height="50" as="geometry" />
        </mxCell>
        <mxCell id="f96BkYOf5rvZ-Ez8Ll_H-48" value="" style="endArrow=none;html=1;rounded=0;entryX=0;entryY=0.75;entryDx=0;entryDy=0;exitX=1;exitY=1;exitDx=0;exitDy=0;" parent="1" source="f96BkYOf5rvZ-Ez8Ll_H-47" target="f96BkYOf5rvZ-Ez8Ll_H-1" edge="1">
          <mxGeometry width="50" height="50" relative="1" as="geometry">
            <mxPoint x="70" y="200" as="sourcePoint" />
            <mxPoint x="120" y="150" as="targetPoint" />
          </mxGeometry>
        </mxCell>
        <mxCell id="f96BkYOf5rvZ-Ez8Ll_H-49" value="Country" style="ellipse;whiteSpace=wrap;html=1;" parent="1" vertex="1">
          <mxGeometry x="-440" y="210" width="120" height="60" as="geometry" />
        </mxCell>
        <mxCell id="f96BkYOf5rvZ-Ez8Ll_H-50" value="" style="endArrow=none;html=1;rounded=0;entryX=0;entryY=1;entryDx=0;entryDy=0;exitX=1;exitY=0;exitDx=0;exitDy=0;" parent="1" source="f96BkYOf5rvZ-Ez8Ll_H-49" target="f96BkYOf5rvZ-Ez8Ll_H-1" edge="1">
          <mxGeometry width="50" height="50" relative="1" as="geometry">
            <mxPoint x="50" y="270" as="sourcePoint" />
            <mxPoint x="100" y="220" as="targetPoint" />
          </mxGeometry>
        </mxCell>
        <mxCell id="f96BkYOf5rvZ-Ez8Ll_H-51" value="Team" style="rounded=0;whiteSpace=wrap;html=1;" parent="1" vertex="1">
          <mxGeometry x="180" y="1040" width="120" height="60" as="geometry" />
        </mxCell>
        <mxCell id="f96BkYOf5rvZ-Ez8Ll_H-53" value="&lt;u&gt;Coach_ID&lt;/u&gt;" style="ellipse;whiteSpace=wrap;html=1;" parent="1" vertex="1">
          <mxGeometry x="-390" y="830" width="130" height="60" as="geometry" />
        </mxCell>
        <mxCell id="f96BkYOf5rvZ-Ez8Ll_H-54" value="" style="endArrow=none;html=1;rounded=0;exitX=1;exitY=0;exitDx=0;exitDy=0;entryX=0.12;entryY=0.924;entryDx=0;entryDy=0;entryPerimeter=0;" parent="1" source="f96BkYOf5rvZ-Ez8Ll_H-53" target="f96BkYOf5rvZ-Ez8Ll_H-19" edge="1">
          <mxGeometry width="50" height="50" relative="1" as="geometry">
            <mxPoint x="60" y="660" as="sourcePoint" />
            <mxPoint x="110" y="610" as="targetPoint" />
          </mxGeometry>
        </mxCell>
        <mxCell id="f96BkYOf5rvZ-Ez8Ll_H-55" value="Gender" style="ellipse;whiteSpace=wrap;html=1;" parent="1" vertex="1">
          <mxGeometry x="75" y="-20" width="130" height="50" as="geometry" />
        </mxCell>
        <mxCell id="f96BkYOf5rvZ-Ez8Ll_H-56" value="" style="endArrow=none;html=1;rounded=0;entryX=0.371;entryY=1.018;entryDx=0;entryDy=0;entryPerimeter=0;" parent="1" source="f96BkYOf5rvZ-Ez8Ll_H-1" target="f96BkYOf5rvZ-Ez8Ll_H-55" edge="1">
          <mxGeometry width="50" height="50" relative="1" as="geometry">
            <mxPoint x="290" y="130" as="sourcePoint" />
            <mxPoint x="340" y="80" as="targetPoint" />
            <Array as="points" />
          </mxGeometry>
        </mxCell>
        <mxCell id="f96BkYOf5rvZ-Ez8Ll_H-91" value="" style="edgeStyle=orthogonalEdgeStyle;rounded=0;orthogonalLoop=1;jettySize=auto;html=1;" parent="1" source="f96BkYOf5rvZ-Ez8Ll_H-58" target="f96BkYOf5rvZ-Ez8Ll_H-90" edge="1">
          <mxGeometry relative="1" as="geometry" />
        </mxCell>
        <mxCell id="f96BkYOf5rvZ-Ez8Ll_H-58" value="" style="rounded=0;whiteSpace=wrap;html=1;" parent="1" vertex="1">
          <mxGeometry x="785" y="1057.5" width="150" height="80" as="geometry" />
        </mxCell>
        <mxCell id="f96BkYOf5rvZ-Ez8Ll_H-60" value="Coach_Name" style="ellipse;whiteSpace=wrap;html=1;" parent="1" vertex="1">
          <mxGeometry x="-140" y="830" width="120" height="80" as="geometry" />
        </mxCell>
        <mxCell id="f96BkYOf5rvZ-Ez8Ll_H-61" value="" style="endArrow=none;html=1;rounded=0;entryX=0.25;entryY=1;entryDx=0;entryDy=0;exitX=0.425;exitY=0.043;exitDx=0;exitDy=0;exitPerimeter=0;" parent="1" source="f96BkYOf5rvZ-Ez8Ll_H-60" target="f96BkYOf5rvZ-Ez8Ll_H-19" edge="1">
          <mxGeometry width="50" height="50" relative="1" as="geometry">
            <mxPoint x="100" y="810" as="sourcePoint" />
            <mxPoint x="150" y="760" as="targetPoint" />
          </mxGeometry>
        </mxCell>
        <mxCell id="f96BkYOf5rvZ-Ez8Ll_H-62" value="Gender" style="ellipse;whiteSpace=wrap;html=1;" parent="1" vertex="1">
          <mxGeometry x="-468" y="680" width="110" height="80" as="geometry" />
        </mxCell>
        <mxCell id="f96BkYOf5rvZ-Ez8Ll_H-63" value="" style="endArrow=none;html=1;rounded=0;exitX=1;exitY=0.5;exitDx=0;exitDy=0;entryX=0;entryY=0.75;entryDx=0;entryDy=0;" parent="1" source="f96BkYOf5rvZ-Ez8Ll_H-62" target="f96BkYOf5rvZ-Ez8Ll_H-19" edge="1">
          <mxGeometry width="50" height="50" relative="1" as="geometry">
            <mxPoint x="50" y="630" as="sourcePoint" />
            <mxPoint x="100" y="580" as="targetPoint" />
          </mxGeometry>
        </mxCell>
        <mxCell id="f96BkYOf5rvZ-Ez8Ll_H-64" value="Country" style="ellipse;whiteSpace=wrap;html=1;" parent="1" vertex="1">
          <mxGeometry x="-385" y="580" width="120" height="60" as="geometry" />
        </mxCell>
        <mxCell id="f96BkYOf5rvZ-Ez8Ll_H-65" value="" style="endArrow=none;html=1;rounded=0;exitX=0;exitY=0.25;exitDx=0;exitDy=0;" parent="1" source="f96BkYOf5rvZ-Ez8Ll_H-19" target="f96BkYOf5rvZ-Ez8Ll_H-64" edge="1">
          <mxGeometry width="50" height="50" relative="1" as="geometry">
            <mxPoint x="100" y="550" as="sourcePoint" />
            <mxPoint x="150" y="500" as="targetPoint" />
          </mxGeometry>
        </mxCell>
        <mxCell id="f96BkYOf5rvZ-Ez8Ll_H-67" value="Sport" style="ellipse;whiteSpace=wrap;html=1;" parent="1" vertex="1">
          <mxGeometry x="20" y="760" width="120" height="60" as="geometry" />
        </mxCell>
        <mxCell id="f96BkYOf5rvZ-Ez8Ll_H-68" value="" style="endArrow=none;html=1;rounded=0;entryX=0.917;entryY=1.021;entryDx=0;entryDy=0;entryPerimeter=0;exitX=0.333;exitY=0;exitDx=0;exitDy=0;exitPerimeter=0;" parent="1" source="f96BkYOf5rvZ-Ez8Ll_H-67" target="f96BkYOf5rvZ-Ez8Ll_H-19" edge="1">
          <mxGeometry width="50" height="50" relative="1" as="geometry">
            <mxPoint x="210" y="920" as="sourcePoint" />
            <mxPoint x="260" y="870" as="targetPoint" />
          </mxGeometry>
        </mxCell>
        <mxCell id="f96BkYOf5rvZ-Ez8Ll_H-69" value="&lt;u&gt;Team_ID&lt;/u&gt;" style="ellipse;whiteSpace=wrap;html=1;" parent="1" vertex="1">
          <mxGeometry x="130" y="1240" width="120" height="80" as="geometry" />
        </mxCell>
        <mxCell id="f96BkYOf5rvZ-Ez8Ll_H-70" value="" style="endArrow=none;html=1;rounded=0;exitX=0.5;exitY=0;exitDx=0;exitDy=0;entryX=0.25;entryY=1;entryDx=0;entryDy=0;" parent="1" source="f96BkYOf5rvZ-Ez8Ll_H-69" target="f96BkYOf5rvZ-Ez8Ll_H-51" edge="1">
          <mxGeometry width="50" height="50" relative="1" as="geometry">
            <mxPoint x="400" y="930" as="sourcePoint" />
            <mxPoint x="450" y="880" as="targetPoint" />
          </mxGeometry>
        </mxCell>
        <mxCell id="f96BkYOf5rvZ-Ez8Ll_H-71" value="Country" style="ellipse;whiteSpace=wrap;html=1;" parent="1" vertex="1">
          <mxGeometry x="380" y="1169" width="120" height="60" as="geometry" />
        </mxCell>
        <mxCell id="f96BkYOf5rvZ-Ez8Ll_H-72" value="" style="endArrow=none;html=1;rounded=0;exitX=0.5;exitY=0;exitDx=0;exitDy=0;entryX=1;entryY=1;entryDx=0;entryDy=0;" parent="1" source="f96BkYOf5rvZ-Ez8Ll_H-71" target="f96BkYOf5rvZ-Ez8Ll_H-51" edge="1">
          <mxGeometry width="50" height="50" relative="1" as="geometry">
            <mxPoint x="470" y="930" as="sourcePoint" />
            <mxPoint x="520" y="880" as="targetPoint" />
          </mxGeometry>
        </mxCell>
        <mxCell id="f96BkYOf5rvZ-Ez8Ll_H-73" value="Sport" style="ellipse;whiteSpace=wrap;html=1;" parent="1" vertex="1">
          <mxGeometry x="380" y="1030" width="120" height="60" as="geometry" />
        </mxCell>
        <mxCell id="f96BkYOf5rvZ-Ez8Ll_H-74" value="" style="endArrow=none;html=1;rounded=0;entryX=0;entryY=0.5;entryDx=0;entryDy=0;exitX=1;exitY=0.25;exitDx=0;exitDy=0;" parent="1" source="f96BkYOf5rvZ-Ez8Ll_H-51" target="f96BkYOf5rvZ-Ez8Ll_H-73" edge="1">
          <mxGeometry width="50" height="50" relative="1" as="geometry">
            <mxPoint x="520" y="860" as="sourcePoint" />
            <mxPoint x="570" y="810" as="targetPoint" />
          </mxGeometry>
        </mxCell>
        <mxCell id="f96BkYOf5rvZ-Ez8Ll_H-75" value="Coach_Name" style="ellipse;whiteSpace=wrap;html=1;" parent="1" vertex="1">
          <mxGeometry x="-20" y="1070" width="120" height="80" as="geometry" />
        </mxCell>
        <mxCell id="f96BkYOf5rvZ-Ez8Ll_H-76" value="" style="endArrow=none;html=1;rounded=0;entryX=0;entryY=0.5;entryDx=0;entryDy=0;exitX=1;exitY=0;exitDx=0;exitDy=0;" parent="1" source="f96BkYOf5rvZ-Ez8Ll_H-75" target="f96BkYOf5rvZ-Ez8Ll_H-51" edge="1">
          <mxGeometry width="50" height="50" relative="1" as="geometry">
            <mxPoint x="320" y="1050" as="sourcePoint" />
            <mxPoint x="370" y="1000" as="targetPoint" />
          </mxGeometry>
        </mxCell>
        <mxCell id="f96BkYOf5rvZ-Ez8Ll_H-77" value="" style="endArrow=none;html=1;rounded=0;entryX=0.75;entryY=1;entryDx=0;entryDy=0;exitX=0.253;exitY=0.16;exitDx=0;exitDy=0;exitPerimeter=0;" parent="1" source="f96BkYOf5rvZ-Ez8Ll_H-78" target="f96BkYOf5rvZ-Ez8Ll_H-51" edge="1">
          <mxGeometry width="50" height="50" relative="1" as="geometry">
            <mxPoint x="637.5" y="1590" as="sourcePoint" />
            <mxPoint x="562.5" y="1390" as="targetPoint" />
          </mxGeometry>
        </mxCell>
        <mxCell id="f96BkYOf5rvZ-Ez8Ll_H-78" value="TeamName" style="ellipse;whiteSpace=wrap;html=1;" parent="1" vertex="1">
          <mxGeometry x="279.99999999999994" y="1270" width="130" height="50" as="geometry" />
        </mxCell>
        <mxCell id="f96BkYOf5rvZ-Ez8Ll_H-80" value="Sport" style="ellipse;whiteSpace=wrap;html=1;" parent="1" vertex="1">
          <mxGeometry x="993" y="460" width="120" height="60" as="geometry" />
        </mxCell>
        <mxCell id="f96BkYOf5rvZ-Ez8Ll_H-81" value="" style="endArrow=none;html=1;rounded=0;exitX=0;exitY=0;exitDx=0;exitDy=0;entryX=1;entryY=1;entryDx=0;entryDy=0;entryPerimeter=0;" parent="1" source="f96BkYOf5rvZ-Ez8Ll_H-80" target="f96BkYOf5rvZ-Ez8Ll_H-31" edge="1">
          <mxGeometry width="50" height="50" relative="1" as="geometry">
            <mxPoint x="670" y="650" as="sourcePoint" />
            <mxPoint x="720" y="600" as="targetPoint" />
          </mxGeometry>
        </mxCell>
        <mxCell id="f96BkYOf5rvZ-Ez8Ll_H-84" value="Start_Date" style="ellipse;whiteSpace=wrap;html=1;" parent="1" vertex="1">
          <mxGeometry x="700" y="530" width="170" height="80" as="geometry" />
        </mxCell>
        <mxCell id="f96BkYOf5rvZ-Ez8Ll_H-85" value="" style="endArrow=none;html=1;rounded=0;entryX=0.5;entryY=1;entryDx=0;entryDy=0;exitX=0.412;exitY=0;exitDx=0;exitDy=0;exitPerimeter=0;" parent="1" source="f96BkYOf5rvZ-Ez8Ll_H-84" target="f96BkYOf5rvZ-Ez8Ll_H-31" edge="1">
          <mxGeometry width="50" height="50" relative="1" as="geometry">
            <mxPoint x="750" y="730" as="sourcePoint" />
            <mxPoint x="800" y="680" as="targetPoint" />
          </mxGeometry>
        </mxCell>
        <mxCell id="f96BkYOf5rvZ-Ez8Ll_H-86" value="End_Date" style="ellipse;whiteSpace=wrap;html=1;" parent="1" vertex="1">
          <mxGeometry x="970" y="340" width="143" height="80" as="geometry" />
        </mxCell>
        <mxCell id="f96BkYOf5rvZ-Ez8Ll_H-88" value="Day" style="ellipse;whiteSpace=wrap;html=1;" parent="1" vertex="1">
          <mxGeometry x="630" y="370" width="120" height="80" as="geometry" />
        </mxCell>
        <mxCell id="f96BkYOf5rvZ-Ez8Ll_H-90" value="Athletes_Name" style="ellipse;whiteSpace=wrap;html=1;" parent="1" vertex="1">
          <mxGeometry x="1040" y="1057.5" width="120" height="80" as="geometry" />
        </mxCell>
        <mxCell id="f96BkYOf5rvZ-Ez8Ll_H-92" value="Medal_Place" style="ellipse;whiteSpace=wrap;html=1;" parent="1" vertex="1">
          <mxGeometry x="755" y="1260" width="120" height="80" as="geometry" />
        </mxCell>
        <mxCell id="f96BkYOf5rvZ-Ez8Ll_H-93" value="" style="endArrow=none;html=1;rounded=0;entryX=0.5;entryY=0;entryDx=0;entryDy=0;exitX=0.608;exitY=0.94;exitDx=0;exitDy=0;exitPerimeter=0;" parent="1" source="f96BkYOf5rvZ-Ez8Ll_H-58" target="f96BkYOf5rvZ-Ez8Ll_H-92" edge="1">
          <mxGeometry width="50" height="50" relative="1" as="geometry">
            <mxPoint x="910" y="340" as="sourcePoint" />
            <mxPoint x="960" y="290" as="targetPoint" />
          </mxGeometry>
        </mxCell>
        <mxCell id="_N7iAMZZw34mjAhH9r4t-1" value="Competition_Type" style="ellipse;whiteSpace=wrap;html=1;" parent="1" vertex="1">
          <mxGeometry x="1580" y="-35" width="120" height="80" as="geometry" />
        </mxCell>
        <mxCell id="_N7iAMZZw34mjAhH9r4t-2" value="Sport" style="ellipse;whiteSpace=wrap;html=1;" parent="1" vertex="1">
          <mxGeometry x="1700" y="100" width="120" height="80" as="geometry" />
        </mxCell>
        <mxCell id="_N7iAMZZw34mjAhH9r4t-3" value="&lt;u&gt;Event_ID&lt;/u&gt;" style="ellipse;whiteSpace=wrap;html=1;" parent="1" vertex="1">
          <mxGeometry x="1340" y="-150" width="120" height="80" as="geometry" />
        </mxCell>
        <mxCell id="_N7iAMZZw34mjAhH9r4t-6" value="" style="endArrow=none;html=1;rounded=0;entryX=0.27;entryY=0.9;entryDx=0;entryDy=0;entryPerimeter=0;exitX=0.75;exitY=0;exitDx=0;exitDy=0;" parent="1" source="f96BkYOf5rvZ-Ez8Ll_H-4" target="_N7iAMZZw34mjAhH9r4t-1" edge="1">
          <mxGeometry width="50" height="50" relative="1" as="geometry">
            <mxPoint x="1350" y="120" as="sourcePoint" />
            <mxPoint x="1400" y="70" as="targetPoint" />
          </mxGeometry>
        </mxCell>
        <mxCell id="_N7iAMZZw34mjAhH9r4t-8" value="Venue_Name" style="ellipse;whiteSpace=wrap;html=1;" parent="1" vertex="1">
          <mxGeometry x="1800" y="390" width="120" height="80" as="geometry" />
        </mxCell>
        <mxCell id="_N7iAMZZw34mjAhH9r4t-9" value="Sport" style="ellipse;whiteSpace=wrap;html=1;" parent="1" vertex="1">
          <mxGeometry x="1680" y="640" width="120" height="80" as="geometry" />
        </mxCell>
        <mxCell id="_N7iAMZZw34mjAhH9r4t-12" value="&lt;u&gt;&lt;font style=&quot;font-size: 18px;&quot;&gt;Venue_ID&lt;/font&gt;&lt;/u&gt;" style="ellipse;whiteSpace=wrap;html=1;" parent="1" vertex="1">
          <mxGeometry x="1550" y="710" width="120" height="80" as="geometry" />
        </mxCell>
        <mxCell id="_N7iAMZZw34mjAhH9r4t-20" value="" style="endArrow=none;html=1;rounded=0;entryX=0.5;entryY=1;entryDx=0;entryDy=0;" parent="1" source="_N7iAMZZw34mjAhH9r4t-12" target="f96BkYOf5rvZ-Ez8Ll_H-35" edge="1">
          <mxGeometry width="50" height="50" relative="1" as="geometry">
            <mxPoint x="1190" y="600" as="sourcePoint" />
            <mxPoint x="1240" y="550" as="targetPoint" />
          </mxGeometry>
        </mxCell>
        <mxCell id="_N7iAMZZw34mjAhH9r4t-23" value="IsIncluded" style="rhombus;whiteSpace=wrap;html=1;rotation=45;" parent="1" vertex="1">
          <mxGeometry x="520" y="600" width="110" height="93.88" as="geometry" />
        </mxCell>
        <mxCell id="_N7iAMZZw34mjAhH9r4t-24" value="" style="endArrow=none;html=1;rounded=0;entryX=1;entryY=0.75;entryDx=0;entryDy=0;exitX=0;exitY=0.5;exitDx=0;exitDy=0;" parent="1" source="_N7iAMZZw34mjAhH9r4t-74" edge="1">
          <mxGeometry width="50" height="50" relative="1" as="geometry">
            <mxPoint x="400" y="420" as="sourcePoint" />
            <mxPoint x="-20" y="200" as="targetPoint" />
          </mxGeometry>
        </mxCell>
        <mxCell id="_N7iAMZZw34mjAhH9r4t-79" value="&lt;font style=&quot;font-size: 18px;&quot;&gt;N&lt;/font&gt;" style="edgeLabel;html=1;align=center;verticalAlign=middle;resizable=0;points=[];" parent="_N7iAMZZw34mjAhH9r4t-24" vertex="1" connectable="0">
          <mxGeometry x="-0.8928" y="-3" relative="1" as="geometry">
            <mxPoint as="offset" />
          </mxGeometry>
        </mxCell>
        <mxCell id="_N7iAMZZw34mjAhH9r4t-25" value="" style="endArrow=none;html=1;rounded=0;entryX=0.25;entryY=0;entryDx=0;entryDy=0;exitX=1;exitY=0.5;exitDx=0;exitDy=0;" parent="1" source="_N7iAMZZw34mjAhH9r4t-23" target="f96BkYOf5rvZ-Ez8Ll_H-58" edge="1">
          <mxGeometry width="50" height="50" relative="1" as="geometry">
            <mxPoint x="710" y="310" as="sourcePoint" />
            <mxPoint x="760" y="260" as="targetPoint" />
          </mxGeometry>
        </mxCell>
        <mxCell id="_N7iAMZZw34mjAhH9r4t-80" value="&lt;font style=&quot;font-size: 18px;&quot;&gt;1&lt;/font&gt;" style="edgeLabel;html=1;align=center;verticalAlign=middle;resizable=0;points=[];" parent="_N7iAMZZw34mjAhH9r4t-25" vertex="1" connectable="0">
          <mxGeometry x="-0.3762" y="-3" relative="1" as="geometry">
            <mxPoint as="offset" />
          </mxGeometry>
        </mxCell>
        <mxCell id="_N7iAMZZw34mjAhH9r4t-26" value="Gender" style="ellipse;whiteSpace=wrap;html=1;" parent="1" vertex="1">
          <mxGeometry x="605" y="1080" width="120" height="80" as="geometry" />
        </mxCell>
        <mxCell id="_N7iAMZZw34mjAhH9r4t-27" value="Country" style="ellipse;whiteSpace=wrap;html=1;" parent="1" vertex="1">
          <mxGeometry x="950" y="940" width="120" height="80" as="geometry" />
        </mxCell>
        <mxCell id="_N7iAMZZw34mjAhH9r4t-28" value="" style="endArrow=none;html=1;rounded=0;entryX=0.678;entryY=0.122;entryDx=0;entryDy=0;exitX=0;exitY=0.25;exitDx=0;exitDy=0;entryPerimeter=0;" parent="1" source="f96BkYOf5rvZ-Ez8Ll_H-58" target="_N7iAMZZw34mjAhH9r4t-26" edge="1">
          <mxGeometry width="50" height="50" relative="1" as="geometry">
            <mxPoint x="870" y="340" as="sourcePoint" />
            <mxPoint x="920" y="290" as="targetPoint" />
          </mxGeometry>
        </mxCell>
        <mxCell id="_N7iAMZZw34mjAhH9r4t-30" value="" style="endArrow=none;html=1;rounded=0;exitX=0.167;exitY=0.875;exitDx=0;exitDy=0;exitPerimeter=0;entryX=0.916;entryY=0.033;entryDx=0;entryDy=0;entryPerimeter=0;" parent="1" source="_N7iAMZZw34mjAhH9r4t-27" target="f96BkYOf5rvZ-Ez8Ll_H-58" edge="1">
          <mxGeometry width="50" height="50" relative="1" as="geometry">
            <mxPoint x="830" y="450" as="sourcePoint" />
            <mxPoint x="880" y="400" as="targetPoint" />
          </mxGeometry>
        </mxCell>
        <mxCell id="_N7iAMZZw34mjAhH9r4t-32" value="" style="endArrow=none;html=1;rounded=0;exitX=0.5;exitY=0;exitDx=0;exitDy=0;" parent="1" source="_N7iAMZZw34mjAhH9r4t-106" target="f96BkYOf5rvZ-Ez8Ll_H-1" edge="1">
          <mxGeometry width="50" height="50" relative="1" as="geometry">
            <mxPoint x="150" y="310" as="sourcePoint" />
            <mxPoint x="200" y="260" as="targetPoint" />
          </mxGeometry>
        </mxCell>
        <mxCell id="_N7iAMZZw34mjAhH9r4t-108" value="&lt;font style=&quot;font-size: 18px;&quot;&gt;N&lt;/font&gt;" style="edgeLabel;html=1;align=center;verticalAlign=middle;resizable=0;points=[];" parent="_N7iAMZZw34mjAhH9r4t-32" vertex="1" connectable="0">
          <mxGeometry x="-0.6234" y="-2" relative="1" as="geometry">
            <mxPoint as="offset" />
          </mxGeometry>
        </mxCell>
        <mxCell id="_N7iAMZZw34mjAhH9r4t-34" value="" style="endArrow=none;html=1;rounded=0;" parent="1" target="f96BkYOf5rvZ-Ez8Ll_H-38" edge="1">
          <mxGeometry width="50" height="50" relative="1" as="geometry">
            <mxPoint x="-170" y="130" as="sourcePoint" />
            <mxPoint x="-120" y="80" as="targetPoint" />
          </mxGeometry>
        </mxCell>
        <mxCell id="_N7iAMZZw34mjAhH9r4t-35" value="" style="endArrow=none;html=1;rounded=0;entryX=0.835;entryY=1.004;entryDx=0;entryDy=0;entryPerimeter=0;exitX=0.5;exitY=0;exitDx=0;exitDy=0;" parent="1" source="f96BkYOf5rvZ-Ez8Ll_H-23" edge="1">
          <mxGeometry width="50" height="50" relative="1" as="geometry">
            <mxPoint x="239.75" y="569.72" as="sourcePoint" />
            <mxPoint x="-70" y="199.99999999999974" as="targetPoint" />
          </mxGeometry>
        </mxCell>
        <mxCell id="_N7iAMZZw34mjAhH9r4t-94" value="&lt;font style=&quot;font-size: 18px;&quot;&gt;N&lt;/font&gt;" style="edgeLabel;html=1;align=center;verticalAlign=middle;resizable=0;points=[];" parent="_N7iAMZZw34mjAhH9r4t-35" vertex="1" connectable="0">
          <mxGeometry x="-0.6013" relative="1" as="geometry">
            <mxPoint y="-1" as="offset" />
          </mxGeometry>
        </mxCell>
        <mxCell id="_N7iAMZZw34mjAhH9r4t-42" value="Coach_ID" style="ellipse;whiteSpace=wrap;html=1;" parent="1" vertex="1">
          <mxGeometry x="-283" y="300" width="120" height="80" as="geometry" />
        </mxCell>
        <mxCell id="_N7iAMZZw34mjAhH9r4t-43" value="Competition_Type" style="ellipse;whiteSpace=wrap;html=1;" parent="1" vertex="1">
          <mxGeometry x="-460" y="290" width="120" height="80" as="geometry" />
        </mxCell>
        <mxCell id="_N7iAMZZw34mjAhH9r4t-44" value="" style="endArrow=none;html=1;rounded=0;entryX=0.173;entryY=1.014;entryDx=0;entryDy=0;entryPerimeter=0;" parent="1" target="f96BkYOf5rvZ-Ez8Ll_H-1" edge="1">
          <mxGeometry width="50" height="50" relative="1" as="geometry">
            <mxPoint x="-350" y="310" as="sourcePoint" />
            <mxPoint x="-300" y="260" as="targetPoint" />
          </mxGeometry>
        </mxCell>
        <mxCell id="_N7iAMZZw34mjAhH9r4t-45" value="" style="endArrow=none;html=1;rounded=0;entryX=0.25;entryY=1;entryDx=0;entryDy=0;" parent="1" source="_N7iAMZZw34mjAhH9r4t-42" target="f96BkYOf5rvZ-Ez8Ll_H-1" edge="1">
          <mxGeometry width="50" height="50" relative="1" as="geometry">
            <mxPoint x="-210" y="300" as="sourcePoint" />
            <mxPoint x="-160" y="250" as="targetPoint" />
          </mxGeometry>
        </mxCell>
        <mxCell id="_N7iAMZZw34mjAhH9r4t-46" value="" style="endArrow=none;html=1;rounded=0;" parent="1" edge="1">
          <mxGeometry width="50" height="50" relative="1" as="geometry">
            <mxPoint x="-90.445" y="650.82" as="sourcePoint" />
            <mxPoint x="-94.00367346938748" y="480.00367346938793" as="targetPoint" />
          </mxGeometry>
        </mxCell>
        <mxCell id="_N7iAMZZw34mjAhH9r4t-109" value="&lt;font style=&quot;font-size: 18px;&quot;&gt;1&lt;/font&gt;" style="edgeLabel;html=1;align=center;verticalAlign=middle;resizable=0;points=[];" parent="_N7iAMZZw34mjAhH9r4t-46" vertex="1" connectable="0">
          <mxGeometry x="0.3808" y="-2" relative="1" as="geometry">
            <mxPoint as="offset" />
          </mxGeometry>
        </mxCell>
        <mxCell id="_N7iAMZZw34mjAhH9r4t-48" value="Schedule" style="rounded=0;whiteSpace=wrap;html=1;" parent="1" vertex="1">
          <mxGeometry x="800" y="390" width="100" height="40" as="geometry" />
        </mxCell>
        <mxCell id="_N7iAMZZw34mjAhH9r4t-50" value="Competition_type" style="ellipse;whiteSpace=wrap;html=1;" parent="1" vertex="1">
          <mxGeometry x="900" y="570" width="120" height="80" as="geometry" />
        </mxCell>
        <mxCell id="_N7iAMZZw34mjAhH9r4t-51" value="" style="endArrow=none;html=1;rounded=0;entryX=0.5;entryY=0;entryDx=0;entryDy=0;exitX=0.895;exitY=1.03;exitDx=0;exitDy=0;exitPerimeter=0;" parent="1" source="f96BkYOf5rvZ-Ez8Ll_H-31" target="_N7iAMZZw34mjAhH9r4t-50" edge="1">
          <mxGeometry width="50" height="50" relative="1" as="geometry">
            <mxPoint x="720" y="660" as="sourcePoint" />
            <mxPoint x="770" y="610" as="targetPoint" />
          </mxGeometry>
        </mxCell>
        <mxCell id="_N7iAMZZw34mjAhH9r4t-56" value="Medallist" style="rounded=0;whiteSpace=wrap;html=1;" parent="1" vertex="1">
          <mxGeometry x="800" y="1070" width="120" height="55" as="geometry" />
        </mxCell>
        <mxCell id="_N7iAMZZw34mjAhH9r4t-58" value="" style="endArrow=none;html=1;rounded=0;entryX=0.854;entryY=0.942;entryDx=0;entryDy=0;entryPerimeter=0;exitX=0.019;exitY=0.382;exitDx=0;exitDy=0;exitPerimeter=0;" parent="1" source="_N7iAMZZw34mjAhH9r4t-9" target="f96BkYOf5rvZ-Ez8Ll_H-35" edge="1">
          <mxGeometry width="50" height="50" relative="1" as="geometry">
            <mxPoint x="1490" y="700" as="sourcePoint" />
            <mxPoint x="1540" y="650" as="targetPoint" />
          </mxGeometry>
        </mxCell>
        <mxCell id="_N7iAMZZw34mjAhH9r4t-66" value="" style="ellipse;whiteSpace=wrap;html=1;aspect=fixed;fillColor=#000000;" parent="1" vertex="1">
          <mxGeometry x="725" y="130" width="20" height="20" as="geometry" />
        </mxCell>
        <mxCell id="_N7iAMZZw34mjAhH9r4t-67" value="" style="endArrow=none;html=1;rounded=0;entryX=0;entryY=0.5;entryDx=0;entryDy=0;" parent="1" target="_N7iAMZZw34mjAhH9r4t-66" edge="1">
          <mxGeometry width="50" height="50" relative="1" as="geometry">
            <mxPoint x="-20" y="140" as="sourcePoint" />
            <mxPoint x="30" y="90" as="targetPoint" />
          </mxGeometry>
        </mxCell>
        <mxCell id="_N7iAMZZw34mjAhH9r4t-68" value="&lt;font style=&quot;font-size: 18px;&quot;&gt;N&lt;/font&gt;" style="edgeLabel;html=1;align=center;verticalAlign=middle;resizable=0;points=[];" parent="_N7iAMZZw34mjAhH9r4t-67" vertex="1" connectable="0">
          <mxGeometry x="0.7988" y="1" relative="1" as="geometry">
            <mxPoint x="29" y="1" as="offset" />
          </mxGeometry>
        </mxCell>
        <mxCell id="_N7iAMZZw34mjAhH9r4t-69" value="" style="ellipse;whiteSpace=wrap;html=1;aspect=fixed;strokeColor=#000000;fillColor=#000000;" parent="1" vertex="1">
          <mxGeometry x="820" y="130" width="20" height="20" as="geometry" />
        </mxCell>
        <mxCell id="_N7iAMZZw34mjAhH9r4t-71" style="edgeStyle=orthogonalEdgeStyle;rounded=0;orthogonalLoop=1;jettySize=auto;html=1;exitX=1;exitY=1;exitDx=0;exitDy=0;entryX=0.5;entryY=1;entryDx=0;entryDy=0;" parent="1" source="_N7iAMZZw34mjAhH9r4t-69" target="_N7iAMZZw34mjAhH9r4t-69" edge="1">
          <mxGeometry relative="1" as="geometry" />
        </mxCell>
        <mxCell id="_N7iAMZZw34mjAhH9r4t-72" value="" style="endArrow=none;html=1;rounded=0;entryX=0;entryY=0.5;entryDx=0;entryDy=0;" parent="1" source="KCaqbn8CW4e_JdHKWhZN-21" target="f96BkYOf5rvZ-Ez8Ll_H-4" edge="1">
          <mxGeometry width="50" height="50" relative="1" as="geometry">
            <mxPoint x="840" y="140" as="sourcePoint" />
            <mxPoint x="890" y="90" as="targetPoint" />
          </mxGeometry>
        </mxCell>
        <mxCell id="_N7iAMZZw34mjAhH9r4t-74" value="" style="ellipse;whiteSpace=wrap;html=1;aspect=fixed;rotation=33;" parent="1" vertex="1">
          <mxGeometry x="520" y="590" width="20" height="20" as="geometry" />
        </mxCell>
        <mxCell id="_N7iAMZZw34mjAhH9r4t-77" value="Competition_Type" style="ellipse;whiteSpace=wrap;html=1;" parent="1" vertex="1">
          <mxGeometry x="1040" y="1240" width="120" height="80" as="geometry" />
        </mxCell>
        <mxCell id="_N7iAMZZw34mjAhH9r4t-78" value="" style="endArrow=none;html=1;rounded=0;exitX=1.003;exitY=0.879;exitDx=0;exitDy=0;exitPerimeter=0;" parent="1" source="f96BkYOf5rvZ-Ez8Ll_H-58" target="_N7iAMZZw34mjAhH9r4t-77" edge="1">
          <mxGeometry width="50" height="50" relative="1" as="geometry">
            <mxPoint x="990" y="360" as="sourcePoint" />
            <mxPoint x="1040" y="310" as="targetPoint" />
          </mxGeometry>
        </mxCell>
        <mxCell id="_N7iAMZZw34mjAhH9r4t-81" value="" style="ellipse;whiteSpace=wrap;html=1;aspect=fixed;" parent="1" vertex="1">
          <mxGeometry x="1390" y="350" width="20" height="20" as="geometry" />
        </mxCell>
        <mxCell id="_N7iAMZZw34mjAhH9r4t-83" value="" style="ellipse;whiteSpace=wrap;html=1;aspect=fixed;fillColor=#000000;" parent="1" vertex="1">
          <mxGeometry x="1390" y="257.5" width="20" height="20" as="geometry" />
        </mxCell>
        <mxCell id="_N7iAMZZw34mjAhH9r4t-85" value="" style="endArrow=none;html=1;rounded=0;exitX=0.5;exitY=0;exitDx=0;exitDy=0;entryX=0.5;entryY=1;entryDx=0;entryDy=0;" parent="1" source="f96BkYOf5rvZ-Ez8Ll_H-35" target="_N7iAMZZw34mjAhH9r4t-81" edge="1">
          <mxGeometry width="50" height="50" relative="1" as="geometry">
            <mxPoint x="1290" y="410" as="sourcePoint" />
            <mxPoint x="1340" y="360" as="targetPoint" />
          </mxGeometry>
        </mxCell>
        <mxCell id="_N7iAMZZw34mjAhH9r4t-88" value="&lt;font style=&quot;font-size: 18px;&quot;&gt;1&lt;/font&gt;" style="edgeLabel;html=1;align=center;verticalAlign=middle;resizable=0;points=[];" parent="_N7iAMZZw34mjAhH9r4t-85" vertex="1" connectable="0">
          <mxGeometry x="0.3504" y="-1" relative="1" as="geometry">
            <mxPoint as="offset" />
          </mxGeometry>
        </mxCell>
        <mxCell id="_N7iAMZZw34mjAhH9r4t-86" value="" style="endArrow=none;html=1;rounded=0;entryX=0.5;entryY=1;entryDx=0;entryDy=0;" parent="1" target="f96BkYOf5rvZ-Ez8Ll_H-4" edge="1">
          <mxGeometry width="50" height="50" relative="1" as="geometry">
            <mxPoint x="1400" y="260" as="sourcePoint" />
            <mxPoint x="1300" y="160" as="targetPoint" />
          </mxGeometry>
        </mxCell>
        <mxCell id="_N7iAMZZw34mjAhH9r4t-87" value="&lt;font style=&quot;font-size: 18px;&quot;&gt;N&lt;/font&gt;" style="edgeLabel;html=1;align=center;verticalAlign=middle;resizable=0;points=[];" parent="_N7iAMZZw34mjAhH9r4t-86" vertex="1" connectable="0">
          <mxGeometry x="-0.5646" y="-3" relative="1" as="geometry">
            <mxPoint as="offset" />
          </mxGeometry>
        </mxCell>
        <mxCell id="_N7iAMZZw34mjAhH9r4t-96" value="" style="ellipse;whiteSpace=wrap;html=1;aspect=fixed;" parent="1" vertex="1">
          <mxGeometry x="230" y="560" width="20" height="20" as="geometry" />
        </mxCell>
        <mxCell id="_N7iAMZZw34mjAhH9r4t-99" value="" style="ellipse;whiteSpace=wrap;html=1;aspect=fixed;fillColor=#000000;" parent="1" vertex="1">
          <mxGeometry x="230" y="640" width="20" height="20" as="geometry" />
        </mxCell>
        <mxCell id="_N7iAMZZw34mjAhH9r4t-104" value="" style="ellipse;whiteSpace=wrap;html=1;aspect=fixed;fillColor=#000000;" parent="1" vertex="1">
          <mxGeometry x="-100" y="480" width="20" height="20" as="geometry" />
        </mxCell>
        <mxCell id="_N7iAMZZw34mjAhH9r4t-107" value="" style="endArrow=none;html=1;rounded=0;exitX=0.5;exitY=0;exitDx=0;exitDy=0;" parent="1" source="f96BkYOf5rvZ-Ez8Ll_H-17" target="_N7iAMZZw34mjAhH9r4t-106" edge="1">
          <mxGeometry width="50" height="50" relative="1" as="geometry">
            <mxPoint x="-95" y="400" as="sourcePoint" />
            <mxPoint x="-95" y="200" as="targetPoint" />
          </mxGeometry>
        </mxCell>
        <mxCell id="_N7iAMZZw34mjAhH9r4t-106" value="" style="ellipse;whiteSpace=wrap;html=1;aspect=fixed;fillColor=#000000;" parent="1" vertex="1">
          <mxGeometry x="-105" y="380" width="20" height="20" as="geometry" />
        </mxCell>
        <mxCell id="_N7iAMZZw34mjAhH9r4t-110" value="Registration_Date" style="ellipse;whiteSpace=wrap;html=1;" parent="1" vertex="1">
          <mxGeometry x="720" y="-110" width="120" height="80" as="geometry" />
        </mxCell>
        <mxCell id="_N7iAMZZw34mjAhH9r4t-111" value="" style="endArrow=none;html=1;rounded=0;" parent="1" source="f96BkYOf5rvZ-Ez8Ll_H-2" target="_N7iAMZZw34mjAhH9r4t-110" edge="1">
          <mxGeometry width="50" height="50" relative="1" as="geometry">
            <mxPoint x="780" y="100" as="sourcePoint" />
            <mxPoint x="830" y="60" as="targetPoint" />
          </mxGeometry>
        </mxCell>
        <mxCell id="_N7iAMZZw34mjAhH9r4t-112" value="Start_Date" style="ellipse;whiteSpace=wrap;html=1;" parent="1" vertex="1">
          <mxGeometry x="1170" y="-115" width="120" height="80" as="geometry" />
        </mxCell>
        <mxCell id="_N7iAMZZw34mjAhH9r4t-113" value="" style="endArrow=none;html=1;rounded=0;exitX=0.185;exitY=0.045;exitDx=0;exitDy=0;exitPerimeter=0;" parent="1" source="f96BkYOf5rvZ-Ez8Ll_H-4" target="_N7iAMZZw34mjAhH9r4t-112" edge="1">
          <mxGeometry width="50" height="50" relative="1" as="geometry">
            <mxPoint x="1100" y="120" as="sourcePoint" />
            <mxPoint x="1150" y="70" as="targetPoint" />
          </mxGeometry>
        </mxCell>
        <mxCell id="_N7iAMZZw34mjAhH9r4t-114" value="End_Date" style="ellipse;whiteSpace=wrap;html=1;" parent="1" vertex="1">
          <mxGeometry x="1800" y="235" width="110" height="65" as="geometry" />
        </mxCell>
        <mxCell id="_N7iAMZZw34mjAhH9r4t-115" value="" style="endArrow=none;html=1;rounded=0;exitX=0.112;exitY=0.251;exitDx=0;exitDy=0;exitPerimeter=0;entryX=1;entryY=1;entryDx=0;entryDy=0;" parent="1" source="_N7iAMZZw34mjAhH9r4t-114" target="f96BkYOf5rvZ-Ez8Ll_H-4" edge="1">
          <mxGeometry width="50" height="50" relative="1" as="geometry">
            <mxPoint x="1300" y="210" as="sourcePoint" />
            <mxPoint x="1350" y="160" as="targetPoint" />
          </mxGeometry>
        </mxCell>
        <mxCell id="_N7iAMZZw34mjAhH9r4t-116" value="Event_Time" style="ellipse;whiteSpace=wrap;html=1;" parent="1" vertex="1">
          <mxGeometry x="1520" y="270" width="120" height="80" as="geometry" />
        </mxCell>
        <mxCell id="_N7iAMZZw34mjAhH9r4t-117" value="" style="endArrow=none;html=1;rounded=0;entryX=0;entryY=0.5;entryDx=0;entryDy=0;exitX=0.917;exitY=0.59;exitDx=0;exitDy=0;exitPerimeter=0;" parent="1" source="f96BkYOf5rvZ-Ez8Ll_H-33" target="_N7iAMZZw34mjAhH9r4t-116" edge="1">
          <mxGeometry width="50" height="50" relative="1" as="geometry">
            <mxPoint x="1420" y="310" as="sourcePoint" />
            <mxPoint x="1420" y="260" as="targetPoint" />
          </mxGeometry>
        </mxCell>
        <mxCell id="_N7iAMZZw34mjAhH9r4t-118" value="Joining_Date" style="ellipse;whiteSpace=wrap;html=1;" parent="1" vertex="1">
          <mxGeometry x="300" y="570" width="120" height="80" as="geometry" />
        </mxCell>
        <mxCell id="_N7iAMZZw34mjAhH9r4t-119" value="" style="endArrow=none;html=1;rounded=0;entryX=0;entryY=0.5;entryDx=0;entryDy=0;" parent="1" target="_N7iAMZZw34mjAhH9r4t-118" edge="1">
          <mxGeometry width="50" height="50" relative="1" as="geometry">
            <mxPoint x="280" y="610" as="sourcePoint" />
            <mxPoint x="330" y="560" as="targetPoint" />
          </mxGeometry>
        </mxCell>
        <mxCell id="KCaqbn8CW4e_JdHKWhZN-4" value="" style="endArrow=none;html=1;rounded=0;entryX=0.5;entryY=1;entryDx=0;entryDy=0;exitX=0.5;exitY=0;exitDx=0;exitDy=0;" parent="1" source="f96BkYOf5rvZ-Ez8Ll_H-31" target="KCaqbn8CW4e_JdHKWhZN-8" edge="1">
          <mxGeometry width="50" height="50" relative="1" as="geometry">
            <mxPoint x="788.7599999999998" y="331.7800000000002" as="sourcePoint" />
            <mxPoint x="840" y="330" as="targetPoint" />
          </mxGeometry>
        </mxCell>
        <mxCell id="KCaqbn8CW4e_JdHKWhZN-8" value="" style="ellipse;whiteSpace=wrap;html=1;aspect=fixed;fillColor=#000000;" parent="1" vertex="1">
          <mxGeometry x="772.5" y="185" width="15" height="15" as="geometry" />
        </mxCell>
        <mxCell id="KCaqbn8CW4e_JdHKWhZN-16" value="" style="ellipse;whiteSpace=wrap;html=1;aspect=fixed;fillColor=#000000;" parent="1" vertex="1">
          <mxGeometry x="605" y="680" width="20" height="20" as="geometry" />
        </mxCell>
        <mxCell id="KCaqbn8CW4e_JdHKWhZN-18" value="&lt;font style=&quot;font-size: 18px;&quot;&gt;N&lt;/font&gt;" style="text;html=1;align=center;verticalAlign=middle;resizable=0;points=[];autosize=1;strokeColor=none;fillColor=none;" parent="1" vertex="1">
          <mxGeometry x="795" y="235" width="40" height="40" as="geometry" />
        </mxCell>
        <mxCell id="KCaqbn8CW4e_JdHKWhZN-20" value="Register" style="rhombus;whiteSpace=wrap;html=1;" parent="1" vertex="1">
          <mxGeometry x="745" y="87.5" width="80" height="80" as="geometry" />
        </mxCell>
        <mxCell id="KCaqbn8CW4e_JdHKWhZN-22" value="" style="endArrow=none;html=1;rounded=0;entryX=0;entryY=0.5;entryDx=0;entryDy=0;" parent="1" target="KCaqbn8CW4e_JdHKWhZN-21" edge="1">
          <mxGeometry width="50" height="50" relative="1" as="geometry">
            <mxPoint x="840" y="140" as="sourcePoint" />
            <mxPoint x="1340" y="140" as="targetPoint" />
          </mxGeometry>
        </mxCell>
        <mxCell id="KCaqbn8CW4e_JdHKWhZN-21" value="&lt;font style=&quot;font-size: 18px;&quot;&gt;N&lt;/font&gt;" style="text;html=1;align=center;verticalAlign=middle;resizable=0;points=[];autosize=1;strokeColor=none;fillColor=none;" parent="1" vertex="1">
          <mxGeometry x="880" y="120" width="40" height="40" as="geometry" />
        </mxCell>
        <mxCell id="1HEih9OtmJOXk0W_vtfL-1" value="&lt;font style=&quot;font-size: 14px;&quot;&gt;Age&lt;/font&gt;" style="ellipse;whiteSpace=wrap;html=1;" vertex="1" parent="1">
          <mxGeometry x="190" y="190" width="120" height="80" as="geometry" />
        </mxCell>
        <mxCell id="1HEih9OtmJOXk0W_vtfL-2" style="edgeStyle=orthogonalEdgeStyle;rounded=0;orthogonalLoop=1;jettySize=auto;html=1;entryX=0.993;entryY=0.684;entryDx=0;entryDy=0;entryPerimeter=0;strokeColor=default;endArrow=none;endFill=0;" edge="1" parent="1" source="1HEih9OtmJOXk0W_vtfL-1" target="f96BkYOf5rvZ-Ez8Ll_H-1">
          <mxGeometry relative="1" as="geometry" />
        </mxCell>
      </root>
    </mxGraphModel>
  </diagram>
</mxfile>
